<?xml version="1.0" encoding="UTF-8"?>
<svg xmlns="http://www.w3.org/2000/svg" xmlns:xlink="http://www.w3.org/1999/xlink" width="30px" height="30px" viewBox="0 0 30 30" version="1.1">
<g id="surface1">
<path style=" stroke:none;fill-rule:nonzero;fill:rgb(94.901961%,95.686275%,90.588235%);fill-opacity:1;" d="M 27.445312 7.394531 L 2.554688 7.394531 C 1.792969 7.394531 1.171875 6.773438 1.171875 6.011719 C 1.171875 5.25 1.792969 4.628906 2.554688 4.628906 L 27.445312 4.628906 C 28.207031 4.628906 28.828125 5.25 28.828125 6.011719 C 28.828125 6.773438 28.207031 7.394531 27.445312 7.394531 Z M 27.445312 7.394531 "/>
<path style=" stroke:none;fill-rule:nonzero;fill:rgb(82.745098%,78.823529%,78.823529%);fill-opacity:1;" d="M 27.445312 16.382812 L 2.554688 16.382812 C 1.792969 16.382812 1.171875 15.761719 1.171875 15 C 1.171875 14.238281 1.792969 13.617188 2.554688 13.617188 L 27.445312 13.617188 C 28.207031 13.617188 28.828125 14.238281 28.828125 15 C 28.828125 15.761719 28.207031 16.382812 27.445312 16.382812 Z M 27.445312 16.382812 "/>
<path style=" stroke:none;fill-rule:nonzero;fill:rgb(71.372549%,70.980392%,70.980392%);fill-opacity:1;" d="M 27.445312 25.382812 L 2.554688 25.382812 C 1.792969 25.382812 1.171875 24.761719 1.171875 24 C 1.171875 23.238281 1.792969 22.617188 2.554688 22.617188 L 27.445312 22.617188 C 28.207031 22.617188 28.828125 23.238281 28.828125 24 C 28.828125 24.761719 28.207031 25.382812 27.445312 25.382812 Z M 27.445312 25.382812 "/>
</g>
</svg>
